HIERARCHY
ROOT Hips
{
 OFFSET 0.000000 0.000000 0.000000
 CHANNELS 6 Xposition Yposition Zposition Yrotation Xrotation Zrotation
 JOINT Chest
 {
  OFFSET 0.000000 10.383400 0.001500
  CHANNELS 3 Yrotation Xrotation Zrotation
  JOINT Chest2
  {
   OFFSET 0.000000 10.418200 -0.003100
   CHANNELS 3 Yrotation Xrotation Zrotation
   JOINT Chest3
   {
    OFFSET 0.000000 10.375100 0.000000
    CHANNELS 3 Yrotation Xrotation Zrotation
    JOINT Chest4
    {
     OFFSET 0.000000 10.364600 0.000000
     CHANNELS 3 Yrotation Xrotation Zrotation
     JOINT Neck
     {
      OFFSET 0.000000 15.642200 0.000000
      CHANNELS 3 Yrotation Xrotation Zrotation
      JOINT Head
      {
       OFFSET 0.000000 9.697300 -0.006500
       CHANNELS 3 Yrotation Xrotation Zrotation
       End Site
       {
        OFFSET 0.000000 18.492200 -0.003400
       }
      }
     }
     JOINT RightCollar
     {
      OFFSET -3.166800 10.349300 0.000000
      CHANNELS 3 Yrotation Xrotation Zrotation
      JOINT RightShoulder
      {
       OFFSET -14.729700 0.000000 0.000000
       CHANNELS 3 Yrotation Xrotation Zrotation
       JOINT RightElbow
       {
        OFFSET 0.000000 -32.224300 0.000000
        CHANNELS 3 Yrotation Xrotation Zrotation
        JOINT RightWrist
        {
         OFFSET 0.000000 -26.084100 0.000000
         CHANNELS 3 Yrotation Xrotation Zrotation
         End Site
         {
          OFFSET 0.000000 -19.319400 0.000000
         }
        }
       }
      }
     }
     JOINT LeftCollar
     {
      OFFSET 3.166800 10.349300 0.000000
      CHANNELS 3 Yrotation Xrotation Zrotation
      JOINT LeftShoulder
      {
       OFFSET 14.729700 0.000000 0.000000
       CHANNELS 3 Yrotation Xrotation Zrotation
       JOINT LeftElbow
       {
        OFFSET 0.000000 -32.224300 0.000000
        CHANNELS 3 Yrotation Xrotation Zrotation
        JOINT LeftWrist
        {
         OFFSET 0.000000 -26.084100 0.000000
         CHANNELS 3 Yrotation Xrotation Zrotation
         End Site
         {
          OFFSET 0.000000 -19.319400 0.000000
         }
        }
       }
      }
     }
    }
   }
  }
 }
 JOINT RightHip
 {
  OFFSET -8.428900 -0.007500 -0.000800
  CHANNELS 3 Yrotation Xrotation Zrotation
  JOINT RightKnee
  {
   OFFSET 0.000000 -43.834600 0.000700
   CHANNELS 3 Yrotation Xrotation Zrotation
   JOINT RightAnkle
   {
    OFFSET 0.000000 -42.757000 0.001200
    CHANNELS 3 Yrotation Xrotation Zrotation
    JOINT RightToe
    {
     OFFSET 0.000000 -6.946900 15.649300
     CHANNELS 3 Yrotation Xrotation Zrotation
     End Site
     {
      OFFSET 0.000000 -1.580800 6.825800
     }
    }
   }
  }
 }
 JOINT LeftHip
 {
  OFFSET 8.428900 -0.007500 -0.000800
  CHANNELS 3 Yrotation Xrotation Zrotation
  JOINT LeftKnee
  {
   OFFSET 0.000000 -43.834600 0.000700
   CHANNELS 3 Yrotation Xrotation Zrotation
   JOINT LeftAnkle
   {
    OFFSET 0.000000 -42.757000 0.001200
    CHANNELS 3 Yrotation Xrotation Zrotation
    JOINT LeftToe
    {
     OFFSET 0.000000 -6.946900 15.649300
     CHANNELS 3 Yrotation Xrotation Zrotation
     End Site
     {
      OFFSET 0.000000 -1.580800 6.825800
     }
    }
   }
  }
 }
}
MOTION
Frames: 9
Frame Time: 0.008333
0.000000 93.354300 0.000000 0.000000 -5.767877 0.000000 0.000000 11.653817 0.000000 0.000000 -5.885947 0.000000 0.000000 -0.000000 0.000000 0.000000 -0.000000 0.000000 0.000000 12.528835 0.000000 0.000000 0.711642 0.000000 0.000000 -0.000000 0.000000 0.000000 0.000000 -90.000000 0.000000 -2.309062 0.000000 0.000000 2.309062 0.000000 0.000000 -0.000000 0.000000 0.000000 -0.000000 90.000000 0.000000 -2.309062 0.000000 0.000000 2.309062 0.000000 0.000000 8.520406 0.000000 0.000000 1.905762 0.000000 -0.000000 -4.658285 0.000000 0.000000 -0.000000 0.000000 0.000000 8.520406 0.000000 0.000000 1.905762 0.000000 -0.000000 -4.658285 0.000000 0.000000 -0.000000 0.000000
124.510387 126.942714 31.700040 -14.188583 -28.311777 -1.508239 -1.621180 15.898860 1.918047 -0.181138 1.566663 0.206883 -0.302701 2.612215 0.346519 -1.457483 14.090651 1.720135 2.200265 13.749809 -1.800179 4.850198 -10.141598 -4.255481 -2.299815 -5.446628 -5.180750 6.396230 -11.430868 -6.746920 27.326883 -43.993815 0.304329 6.384332 8.956774 -21.344331 -4.147531 -7.918978 -1.390312 -0.206834 -4.972270 2.367730 -30.322542 -47.507375 8.428729 -21.285407 5.634956 17.629418 -5.617801 -39.652457 -2.082166 -32.809941 79.991386 -33.605805 1.111674 -11.246875 3.058248 0.000218 -0.006251 0.000097 -4.720216 -32.895263 -5.304941 -2.880329 75.293810 0.557595 -11.670796 -12.043044 -1.859335 0.000124 0.000785 0.000055
124.510723 126.943032 31.700192 -14.195151 -28.316411 -1.500501 -1.617516 15.900175 1.913742 -0.181636 1.563094 0.207492 -0.302639 2.612700 0.346735 -1.457349 14.088509 1.718357 2.200237 13.753130 -1.800014 4.854946 -10.142938 -4.254945 -2.308875 -5.436886 -5.178591 6.402880 -11.431957 -6.747091 27.330553 -43.996322 0.301412 6.385637 8.957204 -21.340580 -4.147274 -7.909690 -1.391754 -0.205916 -4.974989 2.367393 -30.325635 -47.505389 8.433925 -21.284983 5.637021 17.628279 -5.612024 -39.651260 -2.085270 -32.810236 79.993534 -33.609330 1.109410 -11.243834 3.056133 0.000806 -0.006999 0.000358 -4.712722 -32.889502 -5.308867 -2.910300 75.290947 0.529046 -11.669739 -12.043959 -1.858985 0.000224 0.000484 0.000100
124.510859 126.943058 31.699580 -14.195801 -28.317232 -1.497361 -1.620044 15.896428 1.911718 -0.182791 1.558521 0.210180 -0.300007 2.617781 0.344431 -1.458351 14.085073 1.716511 2.200223 13.758949 -1.800211 4.854639 -10.143180 -4.253979 -2.323099 -5.424958 -5.180214 6.413825 -11.437208 -6.743887 27.331495 -44.000265 0.296266 6.392917 8.959001 -21.330773 -4.141581 -7.895767 -1.399224 -0.211938 -4.981827 2.370728 -30.324784 -47.503893 8.437819 -21.287006 5.637455 17.626864 -5.625502 -39.652113 -2.083902 -32.771499 79.997012 -33.580970 1.112476 -11.243773 3.054101 -0.002380 -0.007269 -0.001056 -4.710662 -32.888546 -5.311168 -2.919668 75.289618 0.521684 -11.670555 -12.045158 -1.862120 0.000028 0.000608 0.000012
124.511394 126.943059 31.698977 -14.199404 -28.318087 -1.490652 -1.618649 15.893740 1.910915 -0.183733 1.559806 0.206331 -0.298876 2.618566 0.344627 -1.460451 14.081113 1.715413 2.203086 13.757984 -1.798679 4.853218 -10.139293 -4.253516 -2.344845 -5.411206 -5.180978 6.431939 -11.451091 -6.740386 27.328164 -44.005992 0.296719 6.393250 8.965815 -21.329684 -4.140400 -7.884604 -1.398920 -0.212506 -4.988150 2.367060 -30.327671 -47.502395 8.447430 -21.288122 5.634122 17.622347 -5.626202 -39.652917 -2.087457 -32.741997 79.999338 -33.552861 1.109999 -11.243575 3.048198 -0.001059 -0.006416 -0.000470 -4.708017 -32.888106 -5.312296 -2.922914 75.288504 0.515328 -11.675587 -12.046172 -1.862554 0.000092 0.000673 0.000041
124.510334 126.943105 31.697804 -14.205014 -28.318628 -1.492664 -1.617087 15.890767 1.913100 -0.181438 1.561421 0.206959 -0.301029 2.615721 0.343973 -1.456170 14.082132 1.714961 2.202385 13.754092 -1.795297 4.857763 -10.140599 -4.250872 -2.352429 -5.403840 -5.178915 6.433497 -11.457118 -6.736909 27.331331 -44.008887 0.297038 6.390709 8.966967 -21.333752 -4.140730 -7.879865 -1.397421 -0.210806 -4.986378 2.363453 -30.330217 -47.511846 8.460357 -21.294035 5.637210 17.610631 -5.631071 -39.653199 -2.079957 -32.688675 80.001824 -33.496654 1.105444 -11.239895 3.039807 0.001098 -0.006794 0.000487 -4.708041 -32.888450 -5.300761 -2.936204 75.290446 0.501619 -11.686994 -12.048476 -1.861652 -0.000109 0.000759 -0.000048
124.510284 126.943577 31.697701 -14.212557 -28.324514 -1.487455 -1.613409 15.890624 1.911071 -0.180571 1.564539 0.206496 -0.300725 2.612215 0.343581 -1.453416 14.084185 1.713356 2.201673 13.752919 -1.792985 4.858712 -10.144039 -4.248035 -2.361403 -5.398823 -5.175869 6.427566 -11.461901 -6.725166 27.343651 -44.007620 0.289244 6.396905 8.972910 -21.330639 -4.145822 -7.872931 -1.391857 -0.205673 -4.985456 2.356796 -30.333696 -47.519706 8.467579 -21.298710 5.641175 17.604304 -5.624733 -39.648533 -2.082259 -32.697127 80.000938 -33.503575 1.109041 -11.240309 3.037924 0.001671 -0.006321 0.000742 -4.699288 -32.883160 -5.304080 -2.939567 75.293281 0.499579 -11.681008 -12.050447 -1.861423 0.000354 -0.000261 0.000157
124.510196 126.943938 31.697351 -14.213952 -28.329143 -1.486288 -1.613046 15.890082 1.910443 -0.181083 1.562775 0.207106 -0.300063 2.613639 0.342660 -1.452896 14.083764 1.712585 2.204589 13.747892 -1.792618 4.856599 -10.141177 -4.243820 -2.366052 -5.393238 -5.175080 6.428971 -11.462491 -6.723071 27.340871 -44.008402 0.288983 6.401896 8.973693 -21.330910 -4.148654 -7.859330 -1.388516 -0.202899 -4.992287 2.352896 -30.331874 -47.522845 8.469632 -21.292113 5.646366 17.604257 -5.624284 -39.644363 -2.083295 -32.711009 79.998680 -33.516897 1.116626 -11.241403 3.042161 0.002575 -0.006275 0.001143 -4.706045 -32.878822 -5.303800 -2.926181 75.294246 0.506549 -11.665929 -12.052034 -1.862204 0.000847 0.000052 0.000376
124.510297 126.944155 31.696805 -14.212263 -28.332286 -1.486312 -1.614609 15.887291 1.908923 -0.181568 1.567206 0.208123 -0.300014 2.607993 0.341532 -1.453902 14.084492 1.712727 2.206118 13.746426 -1.792677 4.863075 -10.146115 -4.244072 -2.369126 -5.387504 -5.175570 6.431402 -11.463009 -6.721676 27.340073 -44.007759 0.289272 6.403109 8.972455 -21.335074 -4.147461 -7.847855 -1.387684 -0.201581 -4.996150 2.351169 -30.332212 -47.524891 8.472264 -21.294285 5.640930 17.600866 -5.628570 -39.643507 -2.082967 -32.726262 79.996959 -33.534055 1.122179 -11.238988 3.042334 0.001820 -0.007439 0.000808 -4.708079 -32.876309 -5.304547 -2.928059 75.294580 0.505446 -11.668110 -12.051950 -1.861261 0.000824 0.000435 0.000366
